<svg width="502" height="142" viewBox="0 0 502 142" fill="none" xmlns="http://www.w3.org/2000/svg">
<path fill-rule="evenodd" clip-rule="evenodd" d="M93.2369 25.2208C101.286 36.2299 106.413 51.4885 107.063 72.335C107.601 89.6101 103.827 103.14 96.9868 113.509C90.1514 123.87 80.4819 130.731 69.8128 135.062C48.6504 143.653 23.0938 142.502 5.53748 138.885C2.208 138.199 0 135.276 0 132.063L0 8.59327C0 4.77201 3.00788 1.72848 6.72312 1.51038C8.26284 1.41999 10.1296 1.25842 12.265 1.0736C24.2491 0.0364003 44.6967 -1.7333 63.3066 4.23305C74.4527 7.80652 85.1734 14.1924 93.2369 25.2208ZM8.77581 10.1445C10.204 10.0421 11.7703 9.90998 13.454 9.76798C25.6101 8.7428 43.8938 7.20086 60.6203 12.5634C70.3901 15.6956 79.3963 21.1448 86.1456 30.3757C92.909 39.6258 97.6814 53.0507 98.2911 72.6069C98.7848 88.439 95.3214 100.11 89.6549 108.7C83.9838 117.297 75.8778 123.152 66.5035 126.958C48.1264 134.418 25.3387 133.793 8.77581 130.607L8.77581 10.1445ZM77.3832 43.396C82.1694 51.7984 84.2496 62.7389 81.9979 76.6673C78.5832 97.7895 69.6577 109.682 58.8334 115.36C48.2127 120.932 36.6875 120.025 28.8545 117.483C25.8698 116.515 24.1335 113.747 24.1335 110.926L24.1335 27.4065C24.1335 24.6987 26.1394 23.2792 26.95 22.8061C27.9452 22.2253 29.0736 21.8918 30.0593 21.6806C32.1019 21.2429 34.7192 21.0876 37.582 21.2101C43.3464 21.4569 50.8612 22.8645 58.1245 26.2275C65.4136 29.6025 72.6191 35.0322 77.3832 43.396ZM32.9093 30.0719C33.9818 29.9408 35.4344 29.8766 37.2056 29.9524C41.9819 30.1569 48.3447 31.347 54.4284 34.1639C60.4865 36.9689 66.0976 41.3013 69.7523 47.7175C73.385 54.0949 75.326 62.9521 73.3339 75.2748C70.2291 94.48 62.4892 103.555 54.7473 107.616C47.3502 111.497 39.0894 111.261 32.9093 109.563L32.9093 30.0719Z" fill="#43AAC1"/>
<path fill-rule="evenodd" clip-rule="evenodd" d="M268.322 12.3277V129.287H281.279L278.72 49.3654C278.472 41.6053 288.818 38.7259 292.626 45.4954L339.76 129.287H356.615V12.3277L341.953 12.3277L345.21 92.5436C345.532 100.457 334.874 103.3 331.2 96.28L287.264 12.3277L268.322 12.3277ZM258.706 10.1456C258.706 6.04818 262.033 2.72656 266.137 2.72656L288.588 2.72656C291.355 2.72656 293.893 4.26139 295.174 6.70976L335.207 83.2051L332.253 10.4461C332.082 6.23427 335.455 2.72656 339.677 2.72656L358.801 2.72656C362.905 2.72656 366.232 6.04818 366.232 10.1456V131.469C366.232 135.566 362.905 138.888 358.801 138.888L338.481 138.888C335.795 138.888 333.318 137.44 332.002 135.102L288.617 57.975L290.962 131.232C291.096 135.42 287.732 138.888 283.535 138.888H266.137C262.033 138.888 258.706 135.566 258.706 131.469V10.1456ZM428.333 12.3277L391.575 129.287H407.714L412.242 105.636C412.912 102.14 415.975 99.6105 419.54 99.6105H459.528C462.862 99.6105 465.788 101.827 466.685 105.033L473.472 129.287L491.469 129.287L450.671 12.3277L428.333 12.3277ZM419.638 7.92435C420.61 4.8313 423.481 2.72656 426.728 2.72656L452.224 2.72656C455.386 2.72656 458.201 4.72426 459.241 7.70548L501.561 129.029C503.243 133.85 499.658 138.888 494.544 138.888H471.814C468.48 138.888 465.554 136.671 464.657 133.465L457.87 109.212H421.348L416.819 132.862C416.15 136.359 413.087 138.888 409.521 138.888H388.598C383.582 138.888 380.007 134.027 381.509 129.247L419.638 7.92435ZM439.294 53.3539L431.495 76.4805H447.331L439.294 53.3539ZM432.222 44.2402C434.482 37.5374 443.962 37.4941 446.284 44.1761L457.422 76.2309C459.097 81.051 455.512 86.0816 450.402 86.0816H428.453C423.371 86.0816 419.789 81.1032 421.411 76.295L432.222 44.2402Z" fill="#43AAC1"/>
<path d="M180.673 5.18763C147.078 5.75992 120.003 34.5574 119.926 70.47C119.926 70.5699 119.943 70.6683 119.976 70.7624C124.985 84.754 136.12 103.95 142.144 73.7582C142.318 72.8859 143.563 72.755 143.904 73.5765C151.513 91.8941 165.566 113.299 169.192 70.6219C169.026 62.4109 173.353 48.7096 191.987 59.5922C195.541 61.0628 201.987 66.5042 199.34 76.5044C196.093 88.7708 206.196 120.863 214.79 91.4886C214.994 90.7925 215.927 90.5626 216.414 91.1006C223.018 98.4066 236.29 103.187 245.174 72.3776C245.376 71.6769 244.66 71.0417 243.982 71.3105C216.963 82.0272 210.226 68.0491 214.316 56.5865C214.593 55.8114 213.763 54.9992 213.003 55.316C185.699 66.7025 190.708 46.9283 197.828 33.1773C198.236 32.3887 197.317 31.4939 196.519 31.8836C174.85 42.4648 179.516 19.1978 181.54 6.17713C181.622 5.64856 181.208 5.17852 180.673 5.18763Z" fill="#43AAC1"/>
<path fill-rule="evenodd" clip-rule="evenodd" d="M148.673 83.6187C156.349 97.6148 166.236 105.417 169.192 70.6219C169.053 63.724 172.084 52.9513 184.105 56.1344C186.393 56.7403 189.007 57.8519 191.987 59.5922C194.262 60.5336 197.722 63.1022 199.224 67.4523C200.068 69.8976 200.293 72.9059 199.34 76.5045C196.446 87.4365 204.156 114.115 211.951 98.9971C212.003 98.8969 212.054 98.7949 212.106 98.691C212.852 97.1903 213.599 95.3031 214.336 92.9787C214.488 92.5006 214.639 92.0041 214.79 91.4886C214.994 90.7925 215.927 90.5626 216.414 91.1006C216.787 91.5136 217.182 91.9185 217.596 92.3094C219.023 93.6573 220.68 94.8383 222.485 95.6073C222.543 95.632 222.601 95.6562 222.659 95.68C228.547 98.0891 235.962 96.0777 242.106 81.2761C242.301 80.8061 242.495 80.3233 242.688 79.8274C243.429 77.9157 244.151 75.8085 244.847 73.4905C244.956 73.1248 245.066 72.7538 245.174 72.3776C245.376 71.6769 244.66 71.0417 243.982 71.3105C243.622 71.4533 243.266 71.5916 242.913 71.7257C240.663 72.5809 238.558 73.2605 236.593 73.7809C236.216 73.8808 235.844 73.9747 235.477 74.063C220.753 77.6068 214.254 71.9055 213.331 64.5909C213.306 64.3971 213.286 64.2022 213.269 64.0062C213.093 61.9391 213.347 59.7616 213.973 57.6406C214.077 57.2874 214.192 56.9358 214.316 56.5865C214.593 55.8114 213.763 54.9992 213.003 55.316C212.649 55.4639 212.299 55.6065 211.956 55.744C209.661 56.6613 207.607 57.3482 205.772 57.8287C205.479 57.9056 205.191 57.9773 204.909 58.0437C204.61 58.114 204.317 58.1786 204.03 58.2374C198.748 59.3222 195.549 58.4726 193.836 56.4265C193.712 56.2789 193.596 56.125 193.488 55.9652C192.431 54.4075 192.088 52.2843 192.25 49.8522C192.403 47.5416 193.012 44.9521 193.898 42.3039C194.132 41.6047 194.385 40.9013 194.654 40.1979C195.478 38.0451 196.452 35.8918 197.481 33.8543C197.596 33.6272 197.712 33.4014 197.828 33.1773C198.236 32.3887 197.317 31.4939 196.519 31.8836C196.31 31.9854 196.104 32.0841 195.901 32.1797C193.355 33.3745 191.187 34.0858 189.344 34.3903C188.688 34.4987 188.074 34.5556 187.498 34.5643C178.802 34.6958 179.041 23.8374 180.359 13.9466C180.36 13.9415 180.361 13.9363 180.361 13.9312C180.491 12.9616 180.63 12.0014 180.773 11.0618C180.93 10.0232 181.092 9.00985 181.246 8.0369C181.348 7.39812 181.447 6.77676 181.54 6.17713C181.622 5.64856 181.208 5.17852 180.673 5.18763C179.287 5.21124 177.911 5.28292 176.549 5.40116C176.549 5.40116 176.549 5.40116 176.549 5.40117C175.288 5.51056 174.038 5.65981 172.8 5.84775C172.778 5.8512 172.755 5.85467 172.732 5.85814C142.912 10.4211 119.996 37.4353 119.926 70.47C119.926 70.5699 119.943 70.6683 119.976 70.7624C124.232 82.6511 132.911 98.2974 139.12 84.2099C139.505 83.3367 139.88 82.3491 140.244 81.2393C140.873 79.3235 141.469 77.0434 142.023 74.3581C142.063 74.1603 142.104 73.9604 142.144 73.7582C142.318 72.8859 143.563 72.755 143.904 73.5765C143.985 73.77 144.066 73.9638 144.147 74.1579C145.058 76.3183 146.055 78.5115 147.111 80.6284C147.619 81.6469 148.141 82.6477 148.673 83.6187ZM171.413 14.9935C147.775 19.9547 129.349 41.733 128.694 69.1152C129.747 71.8916 131.009 74.7217 132.344 77.109C132.347 77.1154 132.351 77.1217 132.354 77.128C132.755 75.7302 133.163 74.0497 133.563 72.0459C135.388 62.9039 148.246 61.218 151.985 70.2198C153.777 74.5337 155.873 78.8374 157.979 82.2108C158.172 82.5214 158.363 82.8187 158.55 83.1026C158.641 82.7293 158.732 82.3322 158.823 81.9102C159.45 78.9983 160.01 75.186 160.438 70.293C160.422 65.2846 161.634 56.9617 167.644 51.4813C171.095 48.3343 175.639 46.6223 180.881 46.8262C181.827 46.863 182.781 46.961 183.743 47.1175C183.939 45.719 184.222 44.3669 184.544 43.0989C183.647 42.9533 182.757 42.7322 181.878 42.4265C175.113 40.0737 172.515 34.1136 171.582 29.6843C170.652 25.2671 170.867 20.375 171.272 16.3069C171.316 15.8697 171.363 15.4313 171.413 14.9935ZM156.763 88.046C156.763 88.0452 156.772 88.0317 156.792 88.008C156.773 88.0349 156.763 88.0468 156.763 88.046ZM128.215 67.8134C128.215 67.8147 128.216 67.8161 128.216 67.8175C128.216 67.8161 128.215 67.8147 128.215 67.8134ZM208.465 75.461C209.45 76.7781 210.642 78.0146 212.065 79.1371C213.666 80.3994 215.417 81.3978 217.303 82.1471C213.678 81.5752 209.888 83.1539 207.742 86.2156C207.305 82.796 207.442 80.0933 207.799 78.7436C208.095 77.6257 208.315 76.5309 208.465 75.461ZM203.485 96.1121C203.484 96.111 203.497 96.0947 203.524 96.0663C203.498 96.0989 203.485 96.1131 203.485 96.1121ZM220.078 83.0479C221.092 83.5651 222.05 84.2875 222.905 85.2326L216.414 91.1006L222.905 85.2326C225.419 88.0142 226.955 87.8032 227.184 87.7272C227.62 87.5827 229.128 86.7793 231.107 83.6838C227.128 84.097 223.427 83.9083 220.078 83.0479Z" fill="#43AAC1"/>
<path fill-rule="evenodd" clip-rule="evenodd" d="M173.571 70.7633L173.552 70.9923C172.639 81.7414 171.036 89.1612 168.655 93.697C167.448 95.9977 165.776 98.0669 163.391 99.1345C160.831 100.28 158.275 99.9139 156.184 98.9333C154.208 98.0067 152.49 96.4804 151.041 94.871C149.558 93.2233 148.151 91.2541 146.844 89.1606C145.833 87.5411 144.853 85.7989 143.918 83.9986C142.835 86.941 141.576 89.2587 140.091 90.9269C138.572 92.633 136.589 93.9067 134.17 94.1274C133.898 94.1522 133.63 94.1628 133.367 94.1606C141.771 114.113 160.507 127.682 181.693 127.682C200.597 127.682 218.203 116.995 228.246 100.854C224.074 101.29 220.314 99.778 217.315 97.6967C216.68 99.3231 216.017 100.741 215.323 101.954C214.049 104.181 212.373 106.245 210.063 107.266C207.377 108.453 204.752 107.856 202.776 106.486C201.013 105.263 199.723 103.437 198.78 101.699C196.855 98.1532 195.517 93.365 194.847 88.7841C194.183 84.24 194.083 79.2664 195.111 75.3849C196.127 71.5458 195.361 68.9211 194.266 67.1479C194.14 66.943 194.007 66.7466 193.87 66.5589C191.898 65.9097 190.024 64.8781 188.39 63.3698C187.877 62.8962 187.414 62.3995 186.996 61.8859C184.122 60.5124 181.951 60.0031 180.371 59.9416C178.457 59.8672 177.305 60.4348 176.488 61.1798C174.511 62.9822 173.492 66.8438 173.567 70.5335L173.571 70.7633ZM193.023 55.1506C193.159 55.4367 193.314 55.7086 193.488 55.9652C193.596 56.125 193.712 56.2789 193.836 56.4265C194.832 57.6154 196.328 58.4003 198.444 58.6365C200.168 58.8289 202.302 58.6573 204.91 58.0433C205.192 57.977 205.48 57.9055 205.773 57.8287C207.607 57.3482 209.661 56.6613 211.956 55.744C212.3 55.6065 212.649 55.4639 213.003 55.316C213.763 54.9992 214.593 55.8114 214.316 56.5865C214.192 56.9358 214.077 57.2874 213.973 57.6406C213.347 59.7616 213.093 61.9391 213.269 64.0062C213.286 64.2022 213.306 64.3971 213.331 64.5909C214.282 72.1259 221.15 77.949 236.831 73.7172C238.021 73.3962 239.261 73.0175 240.552 72.5773C242.174 72.0248 243.877 71.3754 245.665 70.6219C245.665 73.9105 245.421 77.1428 244.951 80.302C244.477 83.4871 243.774 86.598 242.861 89.6174C234.674 116.703 209.607 136.433 181.693 136.433C151.918 136.433 127.064 113.986 121.225 84.1083C120.374 79.7551 119.926 75.2442 119.926 70.6219C119.926 37.5182 142.866 10.4281 172.732 5.85814C172.755 5.85467 172.778 5.8512 172.801 5.84775C174.039 5.65981 175.288 5.51056 176.549 5.40117C176.549 5.40116 176.549 5.40116 176.549 5.40116C177.912 5.28292 179.287 5.21124 180.673 5.18763C181.208 5.17852 181.622 5.64856 181.54 6.17713C181.447 6.77676 181.348 7.39812 181.247 8.0369C181.092 9.00985 180.931 10.0232 180.773 11.0618C180.63 12.0014 180.491 12.9616 180.361 13.9312C180.361 13.9363 180.36 13.9415 180.359 13.9466C179.041 23.8374 178.802 34.6958 187.498 34.5643C188.074 34.5556 188.688 34.4987 189.345 34.3903C191.187 34.0858 193.355 33.3745 195.901 32.1797C196.105 32.0841 196.311 31.9854 196.519 31.8836C197.317 31.4939 198.236 32.3887 197.828 33.1773C197.712 33.4014 197.596 33.6272 197.482 33.8543C196.452 35.8918 195.478 38.0451 194.654 40.1979C194.385 40.9013 194.132 41.6047 193.898 42.3039C192.233 47.2803 191.546 52.0494 193.023 55.1506ZM184.545 43.0989C183.893 45.6627 183.4 48.5703 183.469 51.5101C182.525 51.3368 181.606 51.2328 180.711 51.198C176.578 51.0373 173.165 52.3678 170.592 54.7141C165.873 59.0171 164.765 65.9392 164.814 70.4684C163.913 80.9217 162.409 86.7691 160.907 89.6307C160.472 90.4606 160.13 90.8574 159.947 91.0326C159.932 91.0261 159.917 91.0189 159.9 91.011C159.417 90.7845 158.614 90.2046 157.545 89.0171C156.511 87.8681 155.405 86.3497 154.267 84.5274C151.992 80.8828 149.792 76.3448 147.945 71.8981C145.904 66.9865 138.853 67.8949 137.854 72.902C136.359 80.3913 134.695 83.829 133.556 85.1075C133.47 85.2044 133.398 85.2768 133.339 85.3302C133.272 85.2942 133.188 85.2442 133.086 85.1754C132.139 84.5357 130.903 83.1243 129.537 80.953C128.972 77.6111 128.677 74.1593 128.677 70.6219C128.677 42.535 147.343 20.0455 171.413 14.9935C171.363 15.4314 171.316 15.8697 171.272 16.3069C170.867 20.375 170.652 25.2671 171.582 29.6843C172.515 34.1136 175.114 40.0737 181.878 42.4265C182.757 42.7322 183.647 42.9533 184.545 43.0989ZM133.158 85.4679C133.158 85.4672 133.165 85.463 133.179 85.457C133.165 85.4655 133.158 85.4685 133.158 85.4679ZM133.532 85.416C133.54 85.4174 133.544 85.4186 133.544 85.4188C133.544 85.419 133.54 85.4183 133.532 85.416ZM235.557 82.9982C226.407 84.8476 218.524 83.9123 212.574 79.525C208.009 76.1588 205.684 71.6431 204.852 66.9885C204.469 67.0567 204.089 67.1178 203.712 67.1717C204.525 70.1831 204.612 73.686 203.57 77.624C202.974 79.8757 202.92 83.5134 203.505 87.5185C204.085 91.4868 205.201 95.1856 206.47 97.5245C206.71 97.9657 206.928 98.3077 207.115 98.5689C207.289 98.33 207.495 98.0167 207.728 97.6091C208.586 96.1098 209.568 93.7563 210.591 90.2601C211.715 86.4162 216.784 84.9857 219.659 88.1666L216.414 91.1006L219.659 88.1666C222.627 91.449 225.935 92.8416 228.733 91.8204C230.358 91.2269 232.499 89.6321 234.791 86.0421C235.073 85.0386 235.329 84.0236 235.557 82.9982Z" fill="#43AAC1"/>
<path fill-rule="evenodd" clip-rule="evenodd" d="M183.163 79.5185C188.077 79.5185 192.061 75.535 192.061 70.6212C192.061 65.7073 188.077 61.7239 183.163 61.7239C178.249 61.7239 174.266 65.7073 174.266 70.6212C174.266 75.535 178.249 79.5185 183.163 79.5185ZM183.163 88.2687C192.91 88.2687 200.811 80.3677 200.811 70.6212C200.811 60.8747 192.91 52.9736 183.163 52.9736C173.417 52.9736 165.516 60.8747 165.516 70.6212C165.516 80.3677 173.417 88.2687 183.163 88.2687Z" fill="#43AAC1"/>
<path d="M129.49 59.9707L142.937 61.1209L142.29 68.6874L128.843 67.5372L129.49 59.9707Z" fill="#E8A7BF"/>
<path d="M157.77 35.6416L169.608 39.2223L167.593 45.8837L155.755 42.303L157.77 35.6416Z" fill="#E8A7BF"/>
<path d="M214.708 79.1846L226.916 82.8768L224.838 89.7458L212.631 86.0535L214.708 79.1846Z" fill="#E8A7BF"/>
<path d="M157.922 52.7578L165.544 63.2297L159.783 67.4232L152.161 56.9513L157.922 52.7578Z" fill="#E8A7BF"/>
</svg>
