<svg width="553" height="156" viewBox="0 0 553 156" fill="none" xmlns="http://www.w3.org/2000/svg">
<path fill-rule="evenodd" clip-rule="evenodd" d="M102.713 27.7841C111.581 39.9122 117.228 56.7215 117.944 79.6868C118.537 98.7177 114.379 113.623 106.844 125.045C99.314 136.46 88.6617 144.018 76.9082 148.789C53.5951 158.253 25.4409 156.985 6.10029 153.001C2.43241 152.245 0 149.024 0 145.485V9.46665C0 5.25702 3.31358 1.90416 7.40643 1.66388C9.10263 1.56431 11.1591 1.38633 13.5116 1.18272C26.7137 0.0400999 49.2394 -1.90947 69.7407 4.66328C82.0198 8.59993 93.83 15.6348 102.713 27.7841ZM9.66774 11.1756C11.2411 11.0627 12.9665 10.9172 14.8214 10.7608C28.213 9.63138 48.355 7.93273 66.7814 13.8403C77.5442 17.2908 87.4658 23.2938 94.9011 33.4629C102.352 43.6532 107.609 58.4426 108.281 79.9863C108.825 97.4275 105.009 110.285 98.7671 119.748C92.5195 129.218 83.5896 135.669 73.2627 139.861C53.0177 148.08 27.914 147.391 9.66774 143.881V11.1756ZM85.2481 47.8065C90.5207 57.0629 92.8123 69.1154 90.3318 84.4594C86.5701 107.728 76.7374 120.83 64.813 127.085C53.1128 133.223 40.4163 132.224 31.7871 129.424C28.4991 128.357 26.5863 125.308 26.5863 122.2V30.192C26.5863 27.209 28.7961 25.6452 29.6891 25.124C30.7854 24.4842 32.0285 24.1168 33.1143 23.8841C35.3646 23.4019 38.2479 23.2308 41.4016 23.3658C47.7519 23.6376 56.0305 25.1883 64.032 28.8932C72.0619 32.6111 79.9997 38.5927 85.2481 47.8065ZM36.254 33.1283C37.4356 32.9839 39.0358 32.9131 40.987 32.9967C46.2488 33.2219 53.2582 34.533 59.9603 37.6362C66.634 40.7263 72.8154 45.499 76.8416 52.5673C80.8435 59.5929 82.9818 69.3503 80.7872 82.9254C77.3669 104.083 68.8403 114.08 60.3115 118.554C52.1626 122.829 43.0623 122.569 36.254 120.699V33.1283Z" fill="#502D0A"/>
<path fill-rule="evenodd" clip-rule="evenodd" d="M295.593 13.5779V142.424H309.867L307.048 54.38C306.775 45.8312 318.172 42.6592 322.367 50.1166L374.292 142.424H392.861V13.5779H376.708L380.296 101.947C380.65 110.665 368.909 113.796 364.862 106.063L316.461 13.5779H295.593ZM285 11.1741C285 6.66019 288.665 3.00098 293.186 3.00098H317.919C320.967 3.00098 323.763 4.6918 325.174 7.38901L369.276 91.6589L366.022 11.5051C365.833 6.86519 369.55 3.00098 374.201 3.00098H395.268C399.789 3.00098 403.454 6.66019 403.454 11.1741V144.828C403.454 149.342 399.789 153.001 395.268 153.001H372.883C369.924 153.001 367.195 151.406 365.746 148.83L317.951 63.8646L320.534 144.567C320.682 149.181 316.976 153.001 312.353 153.001H293.186C288.665 153.001 285 149.342 285 144.828V11.1741ZM471.867 13.5779L431.373 142.424H449.152L454.141 116.37C454.878 112.518 458.253 109.732 462.181 109.732H506.233C509.905 109.732 513.128 112.174 514.117 115.705L521.594 142.424H541.42L496.475 13.5779H471.867ZM462.289 8.72704C463.36 5.31963 466.522 3.00098 470.099 3.00098H498.186C501.67 3.00098 504.771 5.20171 505.917 8.48593L552.538 142.14C554.391 147.452 550.441 153.001 544.807 153.001H519.767C516.094 153.001 512.871 150.559 511.883 147.027L504.406 120.309H464.172L459.183 146.363C458.446 150.215 455.071 153.001 451.143 153.001H428.094C422.567 153.001 418.629 147.646 420.284 142.381L462.289 8.72704ZM483.943 58.7739L475.35 84.251H492.795L483.943 58.7739ZM476.151 48.7339C478.641 41.3498 489.084 41.3022 491.642 48.6632L503.913 83.9759C505.758 89.286 501.808 94.8279 496.179 94.8279H471.999C466.401 94.8279 462.455 89.3434 464.241 84.0466L476.151 48.7339Z" fill="#502D0A"/>
<path d="M199.036 5.70913C162.027 6.33958 132.2 38.0639 132.116 77.6264C132.116 77.7366 132.134 77.845 132.171 77.9487C137.689 93.3623 149.955 114.509 156.592 81.2489C156.784 80.2879 158.155 80.1438 158.531 81.0487C166.913 101.228 182.394 124.808 186.389 77.7939C186.206 68.7483 190.972 53.6544 211.501 65.6431C215.416 67.2632 222.517 73.2576 219.601 84.2743C216.024 97.7873 227.154 133.141 236.621 100.781C236.845 100.015 237.874 99.7612 238.41 100.354C245.686 108.402 260.306 113.669 270.093 79.728C270.316 78.9561 269.527 78.2563 268.78 78.5525C239.015 90.3583 231.593 74.9596 236.099 62.3319C236.404 61.478 235.49 60.5833 234.653 60.9323C204.574 73.4761 210.092 51.6921 217.935 36.5436C218.385 35.6748 217.372 34.6891 216.493 35.1183C192.622 46.775 197.762 21.1432 199.992 6.79919C200.082 6.21691 199.626 5.69909 199.036 5.70913Z" fill="#502D0A"/>
<path fill-rule="evenodd" clip-rule="evenodd" d="M163.785 92.1116C172.24 107.53 183.132 116.125 186.389 77.7939C186.235 70.1949 189.574 58.3273 202.817 61.8338C205.338 62.5013 208.218 63.7259 211.501 65.6432C214.007 66.6803 217.819 69.5099 219.473 74.3021C220.403 76.996 220.65 80.31 219.601 84.2743C216.413 96.3174 224.907 125.708 233.494 109.053C233.55 108.943 233.607 108.83 233.664 108.716C234.486 107.063 235.309 104.983 236.121 102.423C236.288 101.896 236.455 101.349 236.621 100.781C236.845 100.015 237.874 99.7612 238.41 100.354C238.821 100.809 239.256 101.255 239.712 101.686C241.285 103.171 243.11 104.471 245.098 105.319C245.162 105.346 245.226 105.373 245.29 105.399C251.776 108.053 259.945 105.837 266.714 89.5308C266.929 89.0132 267.142 88.4813 267.354 87.9349C268.171 85.8289 268.966 83.5076 269.733 80.9539C269.853 80.5511 269.974 80.1425 270.093 79.728C270.316 78.9561 269.527 78.2563 268.78 78.5525C268.384 78.7097 267.991 78.8621 267.603 79.0098C265.123 79.952 262.805 80.7006 260.64 81.2739C260.225 81.3839 259.815 81.4874 259.411 81.5846C243.19 85.4887 236.031 79.2079 235.013 71.1499C234.986 70.9364 234.964 70.7216 234.945 70.5058C234.751 68.2285 235.031 65.8298 235.721 63.4932C235.836 63.1041 235.962 62.7167 236.099 62.3319C236.404 61.4781 235.49 60.5833 234.653 60.9323C234.262 61.0952 233.877 61.2524 233.499 61.4038C230.971 62.4144 228.708 63.171 226.687 63.7004C226.364 63.7852 226.047 63.8641 225.735 63.9373C225.406 64.0147 225.084 64.0858 224.768 64.1507C218.948 65.3456 215.425 64.4098 213.537 62.1557C213.401 61.9931 213.273 61.8235 213.154 61.6475C211.99 59.9314 211.612 57.5925 211.79 54.9132C211.959 52.3677 212.63 49.5151 213.605 46.5978C213.863 45.8274 214.142 45.0526 214.439 44.2777C215.346 41.906 216.419 39.534 217.553 37.2894C217.68 37.0391 217.807 36.7905 217.935 36.5436C218.385 35.6748 217.372 34.6891 216.493 35.1184C216.263 35.2305 216.036 35.3392 215.812 35.4446C213.008 36.7608 210.619 37.5444 208.589 37.8798C207.866 37.9993 207.189 38.0619 206.555 38.0715C196.975 38.2164 197.239 26.2543 198.691 15.3583C198.692 15.3527 198.692 15.347 198.693 15.3413C198.836 14.2732 198.989 13.2154 199.147 12.1803C199.32 11.0362 199.498 9.91982 199.668 8.84799C199.78 8.14428 199.889 7.45977 199.992 6.79919C200.082 6.21691 199.626 5.69909 199.036 5.70913C197.509 5.73514 195.994 5.8141 194.493 5.94436C194.493 5.94436 194.493 5.94436 194.493 5.94437C193.104 6.06488 191.728 6.2293 190.364 6.43634C190.339 6.44014 190.314 6.44396 190.289 6.44779C157.437 11.4745 132.193 41.2343 132.116 77.6265C132.116 77.7366 132.134 77.845 132.171 77.9487C136.859 91.0457 146.42 108.282 153.26 92.7629C153.684 91.8009 154.098 90.7129 154.499 89.4903C155.191 87.3798 155.848 84.868 156.458 81.9097C156.503 81.6919 156.548 81.4716 156.592 81.2489C156.784 80.2879 158.155 80.1438 158.531 81.0487C158.619 81.2619 158.709 81.4754 158.799 81.6893C159.802 84.0692 160.9 86.4853 162.063 88.8174C162.623 89.9394 163.198 91.0419 163.785 92.1116ZM188.835 16.5116C162.795 21.977 142.496 45.9688 141.775 76.134C142.935 79.1926 144.325 82.3103 145.795 84.9403C145.799 84.9473 145.803 84.9542 145.807 84.9611C146.249 83.4213 146.698 81.5701 147.139 79.3625C149.149 69.2915 163.313 67.4342 167.433 77.3508C169.407 82.1032 171.716 86.8443 174.036 90.5606C174.249 90.9028 174.459 91.2303 174.665 91.543C174.765 91.1318 174.865 90.6943 174.966 90.2294C175.657 87.0215 176.273 82.8218 176.745 77.4315C176.727 71.9141 178.062 62.7452 184.683 56.7078C188.485 53.241 193.491 51.3551 199.265 51.5796C200.308 51.6202 201.359 51.7282 202.419 51.9005C202.634 50.3599 202.947 48.8704 203.302 47.4736C202.312 47.3132 201.332 47.0696 200.364 46.7328C192.912 44.1409 190.049 37.575 189.022 32.6955C187.997 27.8294 188.234 22.4401 188.68 17.9585C188.728 17.4768 188.78 16.994 188.835 16.5116ZM172.697 96.9888C172.696 96.988 172.707 96.9731 172.729 96.947C172.708 96.9767 172.697 96.9897 172.697 96.9888ZM141.247 74.6998C141.247 74.7014 141.248 74.7029 141.248 74.7045C141.248 74.7029 141.247 74.7014 141.247 74.6998ZM229.653 83.1248C230.738 84.5757 232.051 85.9379 233.619 87.1745C235.383 88.5651 237.312 89.6649 239.389 90.4904C235.396 89.8604 231.221 91.5995 228.857 94.9724C228.375 91.2053 228.526 88.2279 228.92 86.741C229.246 85.5095 229.488 84.3034 229.653 83.1248ZM224.167 105.875C224.166 105.874 224.18 105.856 224.21 105.824C224.182 105.86 224.167 105.876 224.167 105.875ZM242.447 91.4827C243.564 92.0526 244.619 92.8484 245.561 93.8895L238.41 100.354L245.561 93.8895C248.331 96.9538 250.022 96.7214 250.275 96.6376C250.755 96.4785 252.417 95.5934 254.597 92.1833C250.213 92.6385 246.136 92.4306 242.447 91.4827Z" fill="#502D0A"/>
<path fill-rule="evenodd" clip-rule="evenodd" d="M191.213 77.9496L191.191 78.2019C190.185 90.0434 188.42 98.2174 185.797 103.214C184.467 105.749 182.626 108.028 179.998 109.204C177.178 110.467 174.362 110.063 172.059 108.983C169.882 107.962 167.989 106.28 166.393 104.508C164.759 102.692 163.209 100.523 161.769 98.2168C160.656 96.4326 159.576 94.5134 158.545 92.5301C157.353 95.7715 155.966 98.3248 154.33 100.163C152.656 102.042 150.472 103.445 147.807 103.688C147.507 103.716 147.213 103.727 146.922 103.725C156.18 125.705 176.821 140.654 200.16 140.654C220.985 140.654 240.38 128.88 251.445 111.099C246.848 111.579 242.706 109.913 239.403 107.62C238.703 109.412 237.973 110.974 237.209 112.31C235.805 114.764 233.958 117.037 231.413 118.162C228.454 119.47 225.563 118.812 223.386 117.303C221.443 115.956 220.023 113.944 218.983 112.029C216.863 108.123 215.389 102.848 214.651 97.802C213.919 92.796 213.81 87.3169 214.942 83.0409C216.061 78.8116 215.217 75.9201 214.011 73.9668C213.872 73.741 213.726 73.5247 213.574 73.3179C211.402 72.6027 209.337 71.4662 207.538 69.8047C206.973 69.283 206.462 68.7357 206.002 68.17C202.836 66.6568 200.444 66.0958 198.703 66.0281C196.595 65.9461 195.326 66.5713 194.426 67.3921C192.248 69.3777 191.126 73.6317 191.208 77.6964L191.213 77.9496ZM212.642 60.7501C212.792 61.0653 212.962 61.3648 213.154 61.6474C213.273 61.8235 213.401 61.9931 213.537 62.1557C214.634 63.4654 216.283 64.3301 218.614 64.5903C220.513 64.8023 222.864 64.6132 225.737 63.9368C226.048 63.8637 226.364 63.785 226.687 63.7004C228.708 63.171 230.971 62.4143 233.498 61.4038C233.877 61.2524 234.262 61.0952 234.653 60.9323C235.489 60.5833 236.404 61.478 236.099 62.3319C235.962 62.7167 235.836 63.1041 235.721 63.4932C235.031 65.8297 234.751 68.2285 234.945 70.5058C234.964 70.7216 234.986 70.9364 235.013 71.1499C236.062 79.4507 243.627 85.8656 260.902 81.2037C262.213 80.8501 263.578 80.4329 265.002 79.948C266.788 79.3393 268.664 78.6239 270.634 77.7939C270.634 81.4167 270.365 84.9775 269.847 88.4578C269.325 91.9666 268.551 95.3936 267.545 98.7199C258.525 128.558 230.911 150.293 200.16 150.293C167.359 150.293 139.979 125.565 133.546 92.651C132.608 87.8553 132.116 82.8859 132.116 77.7939C132.116 41.3256 157.387 11.4822 190.289 6.44779C190.314 6.44396 190.339 6.44014 190.364 6.43634C191.728 6.2293 193.104 6.06488 194.493 5.94437C194.493 5.94436 194.493 5.94436 194.493 5.94436C195.994 5.8141 197.509 5.73514 199.036 5.70913C199.625 5.69909 200.082 6.21691 199.992 6.79919C199.889 7.45977 199.78 8.14428 199.668 8.84799C199.498 9.91982 199.32 11.0362 199.146 12.1803C198.989 13.2154 198.836 14.2732 198.693 15.3413C198.692 15.347 198.692 15.3527 198.691 15.3583C197.239 26.2543 196.975 38.2164 206.555 38.0715C207.189 38.0619 207.866 37.9993 208.589 37.8798C210.619 37.5444 213.008 36.7608 215.812 35.4445C216.036 35.3392 216.263 35.2305 216.493 35.1183C217.372 34.6891 218.384 35.6748 217.935 36.5436C217.807 36.7905 217.68 37.0391 217.553 37.2894C216.419 39.5339 215.346 41.906 214.439 44.2777C214.142 45.0526 213.863 45.8274 213.605 46.5978C211.772 52.0799 211.015 57.3337 212.642 60.7501ZM203.301 47.4736C202.584 50.2978 202.04 53.501 202.117 56.7396C201.077 56.5486 200.064 56.4341 199.078 56.3958C194.525 56.2187 190.765 57.6844 187.93 60.2692C182.732 65.0095 181.512 72.6352 181.566 77.6247C180.572 89.1405 178.916 95.5822 177.262 98.7346C176.782 99.6489 176.406 100.086 176.204 100.279C176.188 100.272 176.17 100.264 176.152 100.255C175.62 100.006 174.735 99.3669 173.558 98.0587C172.419 96.7928 171.2 95.1201 169.947 93.1126C167.441 89.0976 165.017 84.0984 162.982 79.1998C160.734 73.7889 152.966 74.7897 151.865 80.3057C150.219 88.5562 148.385 92.3432 147.131 93.7517C147.036 93.8585 146.956 93.9381 146.892 93.997C146.818 93.9573 146.725 93.9023 146.613 93.8265C145.57 93.1217 144.207 91.5669 142.703 89.1749C142.081 85.4934 141.755 81.6908 141.755 77.7939C141.755 46.8523 162.319 22.0771 188.835 16.5116C188.78 16.994 188.728 17.4768 188.68 17.9585C188.234 22.4401 187.997 27.8294 189.022 32.6955C190.049 37.575 192.912 44.1409 200.364 46.7328C201.332 47.0696 202.312 47.3132 203.301 47.4736ZM146.692 94.1487C146.692 94.148 146.7 94.1433 146.715 94.1367C146.7 94.1461 146.692 94.1494 146.692 94.1487ZM147.104 94.0915C147.113 94.0931 147.117 94.0944 147.118 94.0946C147.118 94.0949 147.113 94.0941 147.104 94.0915ZM259.499 91.428C249.418 93.4653 240.734 92.435 234.18 87.6018C229.151 83.8935 226.59 78.9189 225.673 73.7911C225.251 73.8662 224.832 73.9336 224.417 73.993C225.313 77.3105 225.409 81.1694 224.26 85.5076C223.604 87.9881 223.544 91.9956 224.189 96.4077C224.828 100.779 226.057 104.854 227.455 107.431C227.719 107.917 227.959 108.294 228.165 108.581C228.357 108.318 228.584 107.973 228.841 107.524C229.786 105.872 230.868 103.28 231.995 99.4279C233.234 95.1934 238.817 93.6175 241.985 97.1217L238.41 100.354L241.985 97.1217C245.254 100.738 248.898 102.272 251.98 101.147C253.772 100.493 256.13 98.7362 258.655 94.7813C258.966 93.6757 259.248 92.5576 259.499 91.428Z" fill="#502D0A"/>
<path fill-rule="evenodd" clip-rule="evenodd" d="M201.78 87.5963C207.193 87.5963 211.581 83.208 211.581 77.7947C211.581 72.3814 207.193 67.9931 201.78 67.9931C196.367 67.9931 191.978 72.3814 191.978 77.7947C191.978 83.208 196.367 87.5963 201.78 87.5963ZM201.78 97.2358C212.517 97.2358 221.221 88.5317 221.221 77.7947C221.221 67.0576 212.517 58.3535 201.78 58.3535C191.043 58.3535 182.339 67.0576 182.339 77.7947C182.339 88.5317 191.043 97.2358 201.78 97.2358Z" fill="#502D0A"/>
<path d="M142.653 66.0645L157.466 67.3315L156.753 75.667L141.94 74.3999L142.653 66.0645Z" fill="#FFFDFD"/>
<path d="M173.804 39.2578L186.846 43.2024L184.626 50.5409L171.585 46.5963L173.804 39.2578Z" fill="#FFFDFD"/>
<path d="M236.531 87.2266L249.979 91.2941L247.69 98.8611L234.242 94.7936L236.531 87.2266Z" fill="#FFFDFD"/>
<path d="M173.972 58.1152L182.369 69.6515L176.023 74.2712L167.626 62.7349L173.972 58.1152Z" fill="#FFFDFD"/>
</svg>
