<svg width="82" height="23" viewBox="0 0 82 23" fill="none" xmlns="http://www.w3.org/2000/svg">
<path fill-rule="evenodd" clip-rule="evenodd" d="M15.1436 4.09637C16.451 5.88449 17.2836 8.36279 17.3892 11.7487C17.4767 14.5545 16.8636 16.752 15.7527 18.4362C14.6424 20.1191 13.0719 21.2334 11.339 21.9369C7.90184 23.3322 3.75091 23.1453 0.899402 22.5578C0.358624 22.4464 0 21.9716 0 21.4498V1.39572C0 0.775074 0.488541 0.280741 1.09197 0.245316C1.34205 0.230635 1.64525 0.204394 1.99209 0.174375C3.93856 0.00591216 7.25966 -0.281524 10.2823 0.687534C12.0927 1.26794 13.8339 2.30514 15.1436 4.09637ZM1.42537 1.64768C1.65735 1.63104 1.91173 1.60959 2.18521 1.58652C4.15962 1.42001 7.12926 1.16957 9.84598 2.04055C11.4328 2.54929 12.8956 3.43435 13.9918 4.93364C15.0903 6.43605 15.8655 8.61654 15.9645 11.7929C16.0447 14.3643 15.4822 16.26 14.5618 17.6551C13.6407 19.0514 12.3241 20.0025 10.8015 20.6206C7.81672 21.8323 4.11553 21.7308 1.42537 21.2132V1.64768ZM12.5686 7.0484C13.346 8.41313 13.6839 10.1901 13.3181 12.4524C12.7635 15.883 11.3138 17.8146 9.55576 18.7369C7.83073 19.6419 5.95881 19.4946 4.68656 19.0817C4.20179 18.9244 3.91977 18.4749 3.91977 18.0167V4.45139C3.91977 4.01158 4.24557 3.78102 4.37723 3.70418C4.53887 3.60985 4.72215 3.55568 4.88224 3.52138C5.21402 3.45028 5.63911 3.42506 6.10409 3.44496C7.04035 3.48504 8.26091 3.71366 9.44062 4.25989C10.6245 4.80805 11.7948 5.68995 12.5686 7.0484ZM5.34514 4.8843C5.51935 4.86301 5.75528 4.85258 6.04295 4.86489C6.81873 4.8981 7.85217 5.09141 8.8403 5.54893C9.82425 6.00451 10.7356 6.70818 11.3292 7.7503C11.9192 8.78613 12.2345 10.2247 11.9109 12.2262C11.4067 15.3455 10.1495 16.8195 8.89209 17.4791C7.69064 18.1094 6.34892 18.0711 5.34514 17.7953V4.8843Z" fill="#FFFDFD"/>
<path fill-rule="evenodd" clip-rule="evenodd" d="M43.5811 2.0018V20.9983H45.6855L45.27 8.0175C45.2296 6.7571 46.91 6.28942 47.5285 7.38892L55.1841 20.9983H57.9217V2.0018H55.5403L56.0693 15.0305C56.1215 16.3159 54.3904 16.7776 53.7937 15.6374L46.6577 2.0018H43.5811ZM42.0192 1.64739C42.0192 0.981882 42.5596 0.442383 43.2261 0.442383H46.8727C47.3221 0.442383 47.7343 0.691671 47.9424 1.08934L54.4446 13.5138L53.9647 1.6962C53.9369 1.01211 54.4849 0.442383 55.1706 0.442383H58.2767C58.9433 0.442383 59.4836 0.981883 59.4836 1.64739V21.3528C59.4836 22.0183 58.9432 22.5578 58.2767 22.5578H54.9763C54.54 22.5578 54.1377 22.3227 53.9241 21.9428L46.8774 9.41587L47.2583 21.3143C47.2801 21.9945 46.7337 22.5578 46.052 22.5578H43.2261C42.5596 22.5578 42.0192 22.0183 42.0192 21.3528V1.64739ZM69.5701 2.0018L63.5998 20.9983H66.2211L66.9566 17.1571C67.0654 16.5891 67.5629 16.1783 68.1421 16.1783H74.6369C75.1783 16.1783 75.6535 16.5384 75.7993 17.0591L76.9017 20.9983H79.8247L73.1983 2.0018H69.5701ZM68.1579 1.28661C68.3158 0.784236 68.7821 0.442383 69.3095 0.442383H73.4506C73.9641 0.442383 74.4214 0.766849 74.5903 1.25106L81.4639 20.9564C81.7371 21.7396 81.1548 22.5578 80.3242 22.5578H76.6323C76.0908 22.5578 75.6156 22.1977 75.4699 21.677L74.3675 17.7377H68.4356L67.7001 21.579C67.5913 22.147 67.0938 22.5578 66.5147 22.5578H63.1164C62.3016 22.5578 61.7209 21.7682 61.9649 20.992L68.1579 1.28661ZM71.3505 8.66531L70.0837 12.4215H72.6557L71.3505 8.66531ZM70.2017 7.18505C70.5689 6.09638 72.1086 6.08935 72.4857 7.17464L74.2948 12.381C74.5669 13.1639 73.9846 13.981 73.1546 13.981H69.5896C68.7643 13.981 68.1824 13.1724 68.4458 12.3914L70.2017 7.18505Z" fill="#FFFDFD"/>
<path d="M29.3451 0.841818C23.8886 0.93477 19.491 5.61207 19.4786 11.445C19.4786 11.4613 19.4813 11.4772 19.4868 11.4925C20.3003 13.765 22.1087 16.8829 23.0873 11.9791C23.1156 11.8374 23.3177 11.8162 23.3731 11.9496C24.609 14.9247 26.8915 18.4013 27.4804 11.4697C27.4535 10.1361 28.1562 7.91068 31.1828 9.67824C31.76 9.9171 32.807 10.8009 32.3771 12.4251C31.8497 14.4175 33.4907 19.6298 34.8864 14.8589C34.9195 14.7458 35.0712 14.7085 35.1502 14.7959C36.2229 15.9825 38.3785 16.759 39.8214 11.7549C39.8543 11.6411 39.7379 11.5379 39.6278 11.5815C35.2394 13.3221 34.1451 11.0518 34.8095 9.19005C34.8544 9.06416 34.7196 8.93225 34.5962 8.98369C30.1615 10.8331 30.9751 7.62136 32.1314 5.38792C32.1977 5.25984 32.0485 5.11451 31.9189 5.17779C28.3994 6.89641 29.1572 3.11736 29.486 1.00253C29.4993 0.916683 29.432 0.840338 29.3451 0.841818Z" fill="#FFFDFD"/>
<path fill-rule="evenodd" clip-rule="evenodd" d="M24.1477 13.5806C25.3943 15.8539 27.0003 17.1211 27.4804 11.4697C27.4578 10.3493 27.9501 8.59963 29.9025 9.11662C30.2742 9.21503 30.6988 9.39558 31.1828 9.67824C31.5523 9.83115 32.1143 10.2483 32.3582 10.9549C32.4953 11.3521 32.5318 11.8407 32.3771 12.4251C31.9071 14.2007 33.1593 18.5339 34.4253 16.0784C34.4337 16.0621 34.4421 16.0456 34.4505 16.0287C34.5717 15.785 34.693 15.4784 34.8127 15.1009C34.8374 15.0233 34.8619 14.9426 34.8864 14.8589C34.9195 14.7458 35.0712 14.7085 35.1502 14.7959C35.2108 14.8629 35.2749 14.9287 35.3422 14.9922C35.574 15.2111 35.8432 15.4029 36.1363 15.5278C36.1457 15.5318 36.1551 15.5358 36.1646 15.5396C37.1208 15.9309 38.3252 15.6042 39.3232 13.2001C39.3549 13.1238 39.3863 13.0454 39.4176 12.9649C39.5381 12.6544 39.6552 12.3121 39.7683 11.9356C39.7861 11.8762 39.8038 11.816 39.8214 11.7549C39.8543 11.6411 39.7379 11.5379 39.6278 11.5815C39.5694 11.6047 39.5115 11.6272 39.4542 11.649C39.0887 11.7879 38.7468 11.8982 38.4277 11.9828C38.3664 11.999 38.3061 12.0143 38.2465 12.0286C35.8549 12.6042 34.7995 11.6782 34.6494 10.4901C34.6454 10.4587 34.6421 10.427 34.6394 10.3952C34.6108 10.0594 34.652 9.70576 34.7537 9.36126C34.7706 9.3039 34.7893 9.24678 34.8095 9.19005C34.8544 9.06416 34.7196 8.93225 34.5962 8.98369C34.5386 9.00772 34.4819 9.03089 34.4261 9.05322C34.0534 9.20221 33.7197 9.31376 33.4218 9.39182C33.3741 9.40431 33.3274 9.41594 33.2815 9.42673C33.233 9.43816 33.1854 9.44864 33.1389 9.4582C32.2808 9.63438 31.7613 9.4964 31.4831 9.16407C31.463 9.14009 31.4441 9.1151 31.4265 9.08914C31.255 8.83613 31.1992 8.49128 31.2254 8.09627C31.2503 7.72097 31.3492 7.30039 31.4931 6.87027C31.5311 6.7567 31.5722 6.64246 31.6159 6.52821C31.7498 6.17854 31.9079 5.82881 32.0752 5.49788C32.0938 5.46099 32.1126 5.42432 32.1314 5.38792C32.1977 5.25984 32.0485 5.11451 31.9189 5.17779C31.885 5.19433 31.8515 5.21036 31.8184 5.22589C31.405 5.41995 31.0528 5.53547 30.7535 5.58493C30.647 5.60254 30.5471 5.61178 30.4537 5.61319C29.0412 5.63455 29.0801 3.87092 29.2942 2.26446C29.2943 2.26362 29.2944 2.26279 29.2945 2.26195C29.3155 2.10447 29.3382 1.94851 29.3614 1.7959C29.387 1.62722 29.4131 1.46263 29.4383 1.3046C29.4548 1.20085 29.4708 1.09993 29.486 1.00253C29.4993 0.916683 29.432 0.840338 29.3451 0.841818C29.1199 0.845653 28.8966 0.857294 28.6753 0.8765C28.6753 0.8765 28.6753 0.8765 28.6753 0.876501C28.4705 0.894268 28.2675 0.918511 28.0665 0.949036C28.0628 0.949596 28.0591 0.950158 28.0554 0.950723C23.2119 1.69185 19.49 6.0795 19.4786 11.445C19.4786 11.4613 19.4813 11.4772 19.4868 11.4925C20.178 13.4235 21.5876 15.9648 22.596 13.6767C22.6585 13.5348 22.7195 13.3744 22.7787 13.1942C22.8808 12.883 22.9775 12.5127 23.0675 12.0765C23.0741 12.0444 23.0807 12.0119 23.0873 11.9791C23.1156 11.8374 23.3177 11.8162 23.3731 11.9496C23.3862 11.981 23.3993 12.0125 23.4126 12.044C23.5605 12.3949 23.7224 12.7511 23.894 13.095C23.9765 13.2604 24.0613 13.4229 24.1477 13.5806ZM27.8411 2.43449C24.0018 3.24029 21.009 6.77754 20.9028 11.225C21.0737 11.6759 21.2787 12.1356 21.4955 12.5233C21.496 12.5244 21.4966 12.5254 21.4972 12.5264C21.5623 12.2994 21.6286 12.0264 21.6935 11.701C21.9898 10.2161 24.0783 9.9423 24.6856 11.4044C24.9767 12.105 25.3171 12.8041 25.6591 13.352C25.6906 13.4024 25.7215 13.4507 25.7519 13.4968C25.7666 13.4362 25.7814 13.3717 25.7962 13.3031C25.8981 12.8302 25.989 12.211 26.0585 11.4163C26.0559 10.6028 26.2527 9.25099 27.2289 8.36086C27.7894 7.84972 28.5275 7.57167 29.3789 7.60478C29.5325 7.61075 29.6875 7.62668 29.8438 7.65209C29.8756 7.42494 29.9216 7.20534 29.9739 6.9994C29.8281 6.97575 29.6836 6.93983 29.5408 6.89018C28.4421 6.50804 28.0201 5.53999 27.8686 4.82058C27.7175 4.10314 27.7524 3.30857 27.8183 2.64782C27.8253 2.5768 27.833 2.50561 27.8411 2.43449ZM25.4617 14.2997C25.4616 14.2996 25.4632 14.2974 25.4664 14.2936C25.4633 14.2979 25.4617 14.2999 25.4617 14.2997ZM20.8248 11.0135C20.8249 11.0138 20.825 11.014 20.8251 11.0142C20.825 11.014 20.8249 11.0138 20.8248 11.0135ZM33.8591 12.2557C34.0191 12.4696 34.2127 12.6704 34.4439 12.8527C34.7039 13.0578 34.9884 13.2199 35.2946 13.3416C34.7059 13.2487 34.0903 13.5051 33.7417 14.0024C33.6707 13.447 33.6929 13.008 33.751 12.7888C33.799 12.6073 33.8348 12.4294 33.8591 12.2557ZM33.0502 15.6098C33.0502 15.6097 33.0522 15.607 33.0566 15.6024C33.0524 15.6077 33.0502 15.61 33.0502 15.6098ZM35.7453 13.4879C35.9101 13.5719 36.0657 13.6893 36.2045 13.8428L35.1502 14.7959L36.2045 13.8428C36.6129 14.2946 36.8623 14.2603 36.8995 14.2479C36.9703 14.2245 37.2153 14.094 37.5367 13.5912C36.8903 13.6583 36.2892 13.6277 35.7453 13.4879Z" fill="#FFFDFD"/>
<path fill-rule="evenodd" clip-rule="evenodd" d="M28.1916 11.4927L28.1885 11.5299C28.0401 13.2757 27.7798 14.4809 27.3932 15.2176C27.1971 15.5912 26.9256 15.9273 26.5382 16.1007C26.1223 16.2869 25.7073 16.2273 25.3676 16.068C25.0467 15.9175 24.7676 15.6696 24.5323 15.4082C24.2914 15.1406 24.0629 14.8208 23.8506 14.4808C23.6864 14.2177 23.5272 13.9348 23.3753 13.6423C23.1995 14.1202 22.995 14.4967 22.7537 14.7676C22.507 15.0447 22.185 15.2516 21.792 15.2875C21.7479 15.2915 21.7044 15.2932 21.6617 15.2929C23.0265 18.5336 26.0698 20.7375 29.5107 20.7375C32.5811 20.7375 35.4407 19.0016 37.072 16.3801C36.3943 16.4508 35.7836 16.2052 35.2965 15.8672C35.1934 16.1314 35.0857 16.3616 34.9731 16.5586C34.7661 16.9204 34.4939 17.2556 34.1186 17.4214C33.6823 17.6143 33.2561 17.5172 32.9352 17.2947C32.6487 17.0962 32.4392 16.7995 32.286 16.5172C31.9734 15.9413 31.756 15.1636 31.6472 14.4196C31.5394 13.6816 31.5232 12.8737 31.6901 12.2433C31.8552 11.6197 31.7307 11.1934 31.5529 10.9054C31.5324 10.8722 31.5108 10.8403 31.4885 10.8098C31.1683 10.7043 30.8638 10.5368 30.5985 10.2918C30.5152 10.2149 30.4399 10.1342 30.3721 10.0508C29.9053 9.82769 29.5527 9.74498 29.296 9.735C28.9851 9.72291 28.798 9.81509 28.6653 9.9361C28.3443 10.2289 28.1788 10.856 28.1909 11.4553L28.1916 11.4927ZM31.351 8.95684C31.3732 9.0033 31.3983 9.04746 31.4265 9.08914C31.4441 9.1151 31.463 9.14009 31.483 9.16407C31.6447 9.35717 31.8879 9.48465 32.2315 9.52302C32.5115 9.55427 32.8581 9.52639 33.2818 9.42667C33.3275 9.4159 33.3742 9.40428 33.4218 9.39182C33.7197 9.31376 34.0534 9.2022 34.4261 9.05321C34.4819 9.03089 34.5386 9.00772 34.5962 8.98369C34.7196 8.93225 34.8544 9.06416 34.8095 9.19005C34.7892 9.24678 34.7706 9.30389 34.7537 9.36126C34.652 9.70576 34.6107 10.0594 34.6394 10.3952C34.6421 10.427 34.6454 10.4587 34.6494 10.4901C34.804 11.714 35.9194 12.6598 38.4664 11.9724C38.6595 11.9203 38.8609 11.8588 39.0708 11.7873C39.3341 11.6975 39.6108 11.5921 39.9012 11.4697C39.9012 12.0038 39.8615 12.5288 39.7851 13.0419C39.7082 13.5593 39.594 14.0645 39.4458 14.555C38.1159 18.9542 34.0446 22.1587 29.5107 22.1587C24.6748 22.1587 20.638 18.5129 19.6895 13.6602C19.5512 12.9531 19.4786 12.2204 19.4786 11.4697C19.4786 6.09297 23.2045 1.69298 28.0554 0.950723C28.0591 0.950158 28.0628 0.949596 28.0665 0.949036C28.2675 0.91851 28.4705 0.894268 28.6753 0.876501C28.6753 0.8765 28.6753 0.8765 28.6753 0.8765C28.8966 0.857294 29.1199 0.845653 29.3451 0.841818C29.432 0.840338 29.4993 0.916683 29.486 1.00253C29.4708 1.09993 29.4548 1.20085 29.4383 1.3046C29.4131 1.46263 29.3869 1.62722 29.3613 1.7959C29.3382 1.94851 29.3155 2.10447 29.2945 2.26195C29.2944 2.26279 29.2943 2.26362 29.2942 2.26446C29.0801 3.87092 29.0412 5.63455 30.4536 5.61319C30.5471 5.61178 30.647 5.60254 30.7535 5.58493C31.0527 5.53547 31.405 5.41995 31.8184 5.22589C31.8515 5.21036 31.885 5.19433 31.9189 5.17779C32.0485 5.11451 32.1977 5.25984 32.1314 5.38792C32.1126 5.42432 32.0938 5.46099 32.0752 5.49788C31.9079 5.82881 31.7498 6.17854 31.6159 6.52821C31.5722 6.64245 31.5311 6.7567 31.4931 6.87027C31.2228 7.67854 31.1112 8.45313 31.351 8.95684ZM29.9739 6.99939C29.8682 7.4158 29.788 7.88806 29.7992 8.36554C29.6459 8.33739 29.4966 8.3205 29.3513 8.31485C28.68 8.28875 28.1256 8.50484 27.7077 8.88594C26.9413 9.58483 26.7614 10.7091 26.7694 11.4448C26.6229 13.1426 26.3787 14.0923 26.1348 14.5571C26.064 14.6919 26.0085 14.7564 25.9788 14.7848C25.9764 14.7838 25.9738 14.7826 25.9711 14.7813C25.8926 14.7445 25.7623 14.6503 25.5887 14.4575C25.4207 14.2708 25.241 14.0242 25.0563 13.7282C24.6868 13.1363 24.3294 12.3992 24.0294 11.677C23.698 10.8792 22.5527 11.0268 22.3904 11.84C22.1477 13.0564 21.8773 13.6148 21.6924 13.8225C21.6784 13.8382 21.6666 13.8499 21.6571 13.8586C21.6462 13.8528 21.6326 13.8447 21.6161 13.8335C21.4622 13.7296 21.2614 13.5003 21.0395 13.1477C20.9478 12.6049 20.8998 12.0442 20.8998 11.4697C20.8998 6.90781 23.9317 3.25504 27.8411 2.43449C27.833 2.50561 27.8253 2.5768 27.8183 2.64782C27.7524 3.30857 27.7175 4.10314 27.8686 4.82058C28.0201 5.53999 28.4421 6.50804 29.5408 6.89018C29.6836 6.93983 29.8281 6.97575 29.9739 6.99939ZM21.6277 13.881C21.6277 13.8809 21.6288 13.8802 21.6311 13.8792C21.6288 13.8806 21.6277 13.8811 21.6277 13.881ZM21.6885 13.8726C21.6897 13.8728 21.6904 13.873 21.6904 13.873C21.6904 13.873 21.6898 13.8729 21.6885 13.8726ZM38.2595 13.4799C36.7732 13.7802 35.4929 13.6283 34.5265 12.9157C33.785 12.369 33.4075 11.6356 33.2723 10.8796C33.2101 10.8906 33.1484 10.9006 33.0871 10.9093C33.2192 11.3984 33.2333 11.9674 33.064 12.607C32.9672 12.9727 32.9584 13.5635 33.0535 14.214C33.1477 14.8586 33.3289 15.4593 33.5351 15.8392C33.574 15.9109 33.6094 15.9664 33.6398 16.0089C33.6681 15.9701 33.7015 15.9192 33.7394 15.853C33.8787 15.6095 34.0383 15.2272 34.2044 14.6593C34.3871 14.035 35.2103 13.8027 35.6773 14.3193L35.1502 14.7958L35.6773 14.3193C36.1593 14.8524 36.6965 15.0786 37.151 14.9128C37.415 14.8164 37.7627 14.5573 38.135 13.9743C38.1809 13.8113 38.2224 13.6464 38.2595 13.4799Z" fill="#FFFDFD"/>
<path fill-rule="evenodd" clip-rule="evenodd" d="M29.7496 12.9149C30.5477 12.9149 31.1947 12.268 31.1947 11.4698C31.1947 10.6717 30.5477 10.0247 29.7496 10.0247C28.9515 10.0247 28.3045 10.6717 28.3045 11.4698C28.3045 12.268 28.9515 12.9149 29.7496 12.9149ZM29.7496 14.3362C31.3326 14.3362 32.6159 13.0529 32.6159 11.4698C32.6159 9.88681 31.3326 8.60352 29.7496 8.60352C28.1666 8.60352 26.8833 9.88681 26.8833 11.4698C26.8833 13.0529 28.1666 14.3362 29.7496 14.3362Z" fill="#FFFDFD"/>
<path d="M21.0321 9.74023L23.2162 9.92705L23.111 11.156L20.927 10.9692L21.0321 9.74023Z" fill="#43AAC1"/>
<path d="M25.625 5.78809L27.5478 6.36966L27.2205 7.45161L25.2977 6.87004L25.625 5.78809Z" fill="#43AAC1"/>
<path d="M34.8731 12.8604L36.8558 13.46L36.5183 14.5757L34.5356 13.976L34.8731 12.8604Z" fill="#43AAC1"/>
<path d="M25.6498 8.56836L26.8878 10.2692L25.952 10.9503L24.714 9.24947L25.6498 8.56836Z" fill="#43AAC1"/>
</svg>
